<svg xmlns="http://www.w3.org/2000/svg" width="5.145" height="11.152" viewBox="0 0 5.145 11.152">
  <g id="Сгруппировать_9" data-name="Сгруппировать 9" transform="translate(-191.592 -52.157)">
    <path id="Контур_8" data-name="Контур 8" d="M196.047,52.157c.185.006.369.014.554.015.075,0,.111.016.11.1,0,.57,0,1.14,0,1.709,0,.025,0,.05-.009.089h-.14c-.352,0-.7,0-1.056,0a.461.461,0,0,0-.521.475c-.016.4,0,.8,0,1.224h1.756l-.2,1.955H194.98v5.583h-2.287a1.112,1.112,0,0,1-.012-.118q0-2.646,0-5.293v-.164h-1.088V55.776h1.088c0-.056,0-.1,0-.14.005-.472-.018-.946.022-1.415a2.027,2.027,0,0,1,1.223-1.848,4.674,4.674,0,0,1,.766-.191c.045-.011.091-.017.137-.025Z" fill="rgba(98,98,98, 0.6)"/>
  </g>
</svg>
