<svg xmlns="http://www.w3.org/2000/svg" width="28" height="29.149" viewBox="0 0 28 29.149">
  <g id="wF1bEc.tif" transform="translate(-360.687 484.685) rotate(-90)">
    <g id="Сгруппировать_6" data-name="Сгруппировать 6" transform="translate(455.536 360.687)">
      <path id="Контур_3" data-name="Контур 3" d="M455.536,376.107a1.655,1.655,0,0,1,1.473-.78,7.606,7.606,0,0,1,1.355-.012,1.989,1.989,0,0,0,2.126-1.049,4.2,4.2,0,0,1,7.139.129,1.851,1.851,0,0,0,1.81.926c4.232-.03,8.465-.014,12.7-.013.291,0,.582-.009.872.008,1.117.068,1.66.509,1.676,1.347.017.879-.542,1.338-1.72,1.4-.29.015-.581.007-.872.007-4.3,0-8.594.012-12.891-.01a1.476,1.476,0,0,0-1.471.813,4.265,4.265,0,0,1-7.47-.076,1.267,1.267,0,0,0-1.314-.734,18.354,18.354,0,0,1-1.84-.007,1.711,1.711,0,0,1-1.569-.787Zm8.5,2.262a1.75,1.75,0,0,0,1.682-1.673,1.81,1.81,0,0,0-1.7-1.672,1.675,1.675,0,0,0-1.637,1.692A1.646,1.646,0,0,0,464.039,378.369Z" transform="translate(-455.536 -362.649)" fill="#333335"/>
      <path id="Контур_4" data-name="Контур 4" d="M455.536,387.765c.48-.792,1.272-.8,2.054-.8,4.4,0,8.79-.017,13.185.01a1.745,1.745,0,0,0,1.727-.9,4.227,4.227,0,0,1,7.312.052,1.525,1.525,0,0,0,1.557.843,12.279,12.279,0,0,1,2.032.047,1.251,1.251,0,0,1,1.28,1.308,1.233,1.233,0,0,1-1.247,1.331,16.161,16.161,0,0,1-2.225.057,1.211,1.211,0,0,0-1.306.748,4.569,4.569,0,0,1-2.645,2.145h-2.133a4.113,4.113,0,0,1-2.585-1.905,1.7,1.7,0,0,0-1.86-.993c-4.364.032-8.726.017-13.09.012-.783,0-1.573-.007-2.054-.8Zm22.247.636a1.69,1.69,0,0,0-1.6-1.718,1.8,1.8,0,0,0-1.756,1.691,1.743,1.743,0,0,0,1.68,1.653A1.661,1.661,0,0,0,477.783,388.4Z" transform="translate(-455.536 -364.613)" fill="#333335"/>
      <path id="Контур_5" data-name="Контур 5" d="M455.536,364.451c.48-.792,1.272-.8,2.053-.8,4.394,0,8.788-.016,13.182.01a1.742,1.742,0,0,0,1.727-.892,4.224,4.224,0,0,1,7.308.043,1.484,1.484,0,0,0,1.555.843,10.971,10.971,0,0,1,1.26-.006c1.445.017,2.044.412,2.062,1.356.017.972-.61,1.391-2.11,1.406-.452,0-.906.027-1.356-.005a1.257,1.257,0,0,0-1.316.731,4.264,4.264,0,0,1-7.47.081,1.468,1.468,0,0,0-1.468-.817c-4.458.021-8.917.012-13.376.008-.783,0-1.573-.008-2.053-.8Zm20.549-1.1a1.679,1.679,0,0,0,.032,3.357,1.656,1.656,0,0,0,1.667-1.743A1.638,1.638,0,0,0,476.085,363.352Z" transform="translate(-455.536 -360.687)" fill="#333335"/>
    </g>
  </g>
</svg>
