<svg xmlns="http://www.w3.org/2000/svg" width="13.232" height="7.948" viewBox="0 0 13.232 7.948">
  <g id="Сгруппировать_10" data-name="Сгруппировать 10" transform="translate(-496.981 -51.539)">
    <path id="Контур_10" data-name="Контур 10" d="M498.262,51.975c.243,0,.486.007.728,0a.6.6,0,0,1,.543.29q.263.386.512.782c.366.582.7,1.181,1.09,1.75a3.056,3.056,0,0,0,.476.585c.2.182.345.151.45-.1a3.019,3.019,0,0,0,.179-.941c.039-.466.033-.934.029-1.4,0-.347-.147-.491-.495-.5-.092,0-.183,0-.275,0-.035,0-.08.016-.1-.024s.02-.076.048-.1a2.536,2.536,0,0,1,1.369-.739,6.763,6.763,0,0,1,1.043-.029c.165,0,.33,0,.495,0a.493.493,0,0,1,.522.376,2.592,2.592,0,0,1,.09.857c0,.645-.073,1.29-.009,1.936a1.7,1.7,0,0,0,.127.56.319.319,0,0,0,.587.064,1.488,1.488,0,0,0,.2-.362,16.312,16.312,0,0,1,1.651-2.944.529.529,0,0,1,.457-.206,5.2,5.2,0,0,1,1.945.288.956.956,0,0,1,.113.049c.167.083.2.151.153.331a3.36,3.36,0,0,1-.413.865c-.4.669-.889,1.279-1.341,1.913a4.293,4.293,0,0,0-.259.4c-.181.323-.16.447.136.664a6.54,6.54,0,0,1,.927.837,7.379,7.379,0,0,1,.831,1,.8.8,0,0,1-.074,1.014.926.926,0,0,1-.665.287c-.509.007-1.018,0-1.526,0a.519.519,0,0,1-.366-.132q-.213-.2-.417-.4a10.15,10.15,0,0,0-.985-.9c-.073-.056-.149-.106-.225-.157a.713.713,0,0,0-.812-.071.92.92,0,0,0-.506.8,1.9,1.9,0,0,1-.057.517.42.42,0,0,1-.46.344,4.8,4.8,0,0,1-1.576-.178,4.712,4.712,0,0,1-1.721-1.055,12.675,12.675,0,0,1-3.187-4.592c-.151-.364-.3-.727-.451-1.092-.136-.337-.032-.531.331-.56.3-.024.595-.005.892-.005Z" transform="translate(0 0)" fill="rgba(98,98,98, 0.6)"/>
  </g>
</svg>
