<svg xmlns="http://www.w3.org/2000/svg" width="12.53" height="8.813" viewBox="0 0 12.53 8.813">
  <g id="nJGaBS.tif" transform="translate(-337.08 -52.397)">
    <g id="Сгруппировать_11" data-name="Сгруппировать 11" transform="translate(337.08 52.397)">
      <path id="Контур_11" data-name="Контур 11" d="M337.08,59.056V54.167a1.916,1.916,0,0,1,1.8-1.666,7.178,7.178,0,0,1,1.113-.1q3.32.008,6.639,0a6.349,6.349,0,0,1,1.4.166,1.669,1.669,0,0,1,1.459,1.535,28.577,28.577,0,0,1,.047,4.832,2.13,2.13,0,0,1-1.786,2.187l-.445.092h-7.893A2.4,2.4,0,0,1,337.08,59.056Zm4.851-2.307c0,.4-.009.8,0,1.2.012.463.236.608.646.4q1.166-.589,2.314-1.215c.424-.231.423-.532-.006-.761-.768-.411-1.544-.808-2.324-1.2-.41-.2-.621-.062-.631.41C341.923,55.976,341.93,56.362,341.931,56.749Z" transform="translate(-337.08 -52.397)" fill="rgba(98,98,98, 0.6)"/>
    </g>
  </g>
</svg>
