<svg xmlns="http://www.w3.org/2000/svg" width="10.475" height="10.474" viewBox="0 0 10.475 10.474">
  <path id="Контур_9" data-name="Контур 9" d="M309.834,61.972c-1.052,0-2.1,0-3.157,0a2.014,2.014,0,0,1-2.008-1.521,2.12,2.12,0,0,1-.061-.519q-.006-3.192,0-6.384a2.014,2.014,0,0,1,1.739-2.028,2.192,2.192,0,0,1,.338-.019q3.157,0,6.313,0a2.015,2.015,0,0,1,2.026,1.573,2.144,2.144,0,0,1,.054.486q.005,3.174,0,6.348a2.026,2.026,0,0,1-1.75,2.046,2.356,2.356,0,0,1-.373.019Q311.4,61.973,309.834,61.972Zm-4.206-6.3v.13q0,2.046,0,4.092a1,1,0,0,0,1.054,1.057q3.156,0,6.313,0a1.007,1.007,0,0,0,1.06-1.067q0-2.04,0-4.08v-.127h-1.513c.053.319.12.631.152.945a2.394,2.394,0,0,1-.118.956,2.84,2.84,0,0,1-.429.85,2.9,2.9,0,0,1-.693.672,2.854,2.854,0,0,1-3.219.007,2.866,2.866,0,0,1-1.056-3.435Zm6.051,1.064a1.84,1.84,0,1,0-1.865,1.839A1.84,1.84,0,0,0,311.679,56.736Zm2.179-4.021H312.1v1.759h1.761" transform="translate(-304.604 -51.498)" fill="#fff"/>
</svg>
