<svg xmlns="http://www.w3.org/2000/svg" width="135.419" height="71.816" viewBox="0 0 135.419 71.816">
  <g id="Слой_2" data-name="Слой 2" transform="translate(0.02 -1.998)">
    <g id="Слой_1" data-name="Слой 1" transform="translate(-0.02 -0.002)">
      <path id="Контур_1663" data-name="Контур 1663" d="M164.268,11.616c1.986,6.024-.15,17.433-.443,17.279,0,0-8.325-6.584-10.311-12.627S154.106-.1,154.289,0A21.776,21.776,0,0,1,164.268,11.616Z" transform="translate(-95.88 2.002)" fill="#b55fa3" opacity="0.61"/>
      <path id="Контур_1664" data-name="Контур 1664" d="M179.87,11.616c-1.986,6.024.15,17.433.454,17.276,0,0,8.325-6.584,10.311-12.627S190.032-.1,189.849,0A21.776,21.776,0,0,0,179.87,11.616Z" transform="translate(-112.54 2.002)" fill="#b55fa3" opacity="0.61"/>
      <path id="Контур_1665" data-name="Контур 1665" d="M35.1,120.972c14.145,2.341,33.392,19.778,32.7,20.275,0,0-23.344,11-37.489,8.658S-.419,130.318-.013,130.021C6.571,125.307,20.968,118.631,35.1,120.972Z" transform="translate(0.02 -76.416)" fill="#f6bc38" opacity="0.45"/>
      <path id="Контур_1666" data-name="Контур 1666" d="M75.3,67.493c9.071,11.1,33.776,19.119,33.86,18.289,0,0-2.081-25.722-11.149-36.823S65.717,32.023,65.659,32.528C64.854,40.586,66.226,56.391,75.3,67.493Z" transform="translate(-41.51 -20.61)" fill="#f6bc38" opacity="0.45"/>
      <path id="Контур_1667" data-name="Контур 1667" d="M217.439,120.792c-14.145,2.341-33.392,19.778-32.7,20.275,0,0,23.344,11,37.489,8.658s30.744-19.584,30.33-19.88C245.974,125.127,231.584,118.451,217.439,120.792Z" transform="translate(-117.146 -76.302)" fill="#bbcf35" opacity="0.45"/>
      <path id="Контур_1668" data-name="Контур 1668" d="M219.14,67.315c-9.071,11.1-33.776,19.119-33.86,18.289,0,0,2.081-25.722,11.149-36.823s32.276-16.947,32.342-16.435C229.583,40.4,228.212,56.206,219.14,67.315Z" transform="translate(-117.501 -20.494)" fill="#bbcf35" opacity="0.45"/>
    </g>
  </g>
</svg>
